<svg width="61" height="39" viewBox="0 0 61 39" fill="none" xmlns="http://www.w3.org/2000/svg">
<path fill-rule="evenodd" clip-rule="evenodd" d="M37.0124 0.770628C37.2081 0.854489 37.5437 1.18993 37.9911 1.749C38.3546 2.22422 39.529 3.45417 40.5636 4.51641L42.465 6.41726L44.1147 6.47316C47.4142 6.58498 48.4488 6.7527 49.036 7.22791C49.5393 7.64722 49.5394 7.64722 50.3223 9.24058C50.4341 9.49216 50.7417 9.88351 50.9934 10.1351C51.245 10.3867 51.5806 10.8339 51.7763 11.1973C51.9441 11.5328 52.4474 12.4552 52.8948 13.2379C53.6777 14.6077 54.0132 15.1947 54.5445 16.201C55.3834 17.7385 52.8948 18.3255 51.4408 16.9278C51.1611 16.6483 51.1611 16.6483 51.1611 17.8782C51.1611 19.3318 50.7137 18.8846 54.2929 21.037L55.8867 21.9874L56.4459 21.9595L57.0052 21.9315L57.0611 22.3229C57.117 22.7142 57.2289 22.854 57.7601 23.1335L58.0398 23.2733V24.6151C58.0398 25.7891 58.0118 25.9568 57.872 26.0127C57.7602 26.0687 47.1905 28.2211 44.8138 28.6683C44.4782 28.7243 43.7792 28.864 43.3038 28.9758C42.2413 29.1995 41.8219 29.1156 39.5569 28.0813C39.3612 27.9975 38.1029 27.4943 34.2162 25.9009C32.8461 25.3419 31.5598 24.8387 31.3921 24.7548C31.0286 24.6151 30.8049 24.6151 30.3295 24.8387C30.0499 24.9505 29.7423 25.0903 26.8622 26.2643C24.4016 27.2707 23.2551 27.7459 21.7172 28.3888C19.7599 29.2274 19.9836 29.2274 15.8452 28.3888C13.9997 27.9975 12.2102 27.662 11.9026 27.5781C8.88271 26.9911 4.35288 26.0687 4.18511 25.9848C3.98937 25.9009 3.98938 25.845 3.98938 24.6989C3.98938 23.6367 3.96141 23.469 3.76568 23.0217C3.56995 22.6024 3.54199 22.3788 3.54199 21.652C3.54199 20.6177 3.65383 20.7295 2.47943 20.5338C1.61261 20.3941 1.30503 20.2823 1.41688 20.1704C1.44484 20.1425 1.75242 20.1704 2.11593 20.2543C2.47943 20.3102 2.95478 20.3941 3.15052 20.422L3.54199 20.4779V19.4436V18.4094L1.92019 16.7881C1.02541 15.8935 0.326364 15.1388 0.354326 15.1108C0.382288 15.0829 1.08134 15.7258 1.92019 16.5365C3.56995 18.1857 3.54199 18.1578 3.54199 17.6826C3.54199 17.2633 3.59791 17.2074 3.87753 17.3192C4.01734 17.3751 4.71638 17.5148 5.44339 17.6826C8.68698 18.3255 8.51921 18.2137 8.51921 19.6114C8.51921 20.2543 8.54717 20.45 8.63105 20.422C8.88271 20.3382 10.2528 19.4716 10.5045 19.2759C10.84 18.9964 10.896 18.7169 10.84 17.6267L10.7841 16.7042L10.4765 16.9558C9.60972 17.6546 8.40736 17.8782 7.70831 17.431C7.00926 17.0117 7.03722 16.8999 8.04385 15.0829C8.51921 14.2722 8.88271 13.5734 8.88271 13.5454C8.88271 13.3218 10.7562 10.2469 11.1476 9.8835C11.4832 9.54806 11.6789 9.26853 11.9026 8.6815C12.6016 7.00428 13.2168 6.64089 15.6495 6.52907C16.5443 6.50112 17.8026 6.41726 18.4177 6.3893L19.5362 6.3334L21.2978 4.54437C22.2765 3.56599 23.2551 2.50375 23.4788 2.22421C25.0727 0.211554 24.849 0.211555 28.3162 1.97263C30.5812 3.11873 31.0006 3.28645 31.1963 3.23055C31.3361 3.20259 32.4826 2.61557 33.7409 1.97263C35.6423 1.02221 36.3972 0.658812 36.7887 0.546997C36.7048 0.630858 36.8446 0.686767 37.0124 0.770628ZM21.3817 4.62823C19.4244 6.64089 19.4523 6.61294 17.6348 7.33973C16.9917 7.59131 16.2926 7.8988 16.0689 7.98266C15.4817 8.23425 11.3434 11.7844 11.1476 12.2316C10.868 12.7907 10.84 20.0866 11.1197 20.3382C11.9585 21.1768 13.6642 19.9468 13.9438 18.2975C14.0836 17.5428 14.3632 15.6979 14.5031 14.7754C14.6149 13.9368 14.6708 13.8529 15.9571 12.7907C16.8519 12.0639 17.9144 11.0296 18.194 10.6383C18.2779 10.4985 18.4457 10.2749 18.5575 10.163C18.7533 9.91146 18.977 9.60397 19.6481 8.62559C19.8717 8.29015 20.0954 8.03857 20.1514 8.03857C20.2632 8.03857 20.1514 8.20629 19.2007 9.54806C18.7253 10.219 18.3059 10.806 18.25 10.8898C18.194 10.9737 18.0263 11.2253 17.8305 11.4769C17.6628 11.7284 17.3552 12.1477 17.1874 12.3993C17.0196 12.6789 16.8519 12.9025 16.8239 12.9305C16.2367 13.4895 15.9012 14.3002 15.6775 15.9215C15.5656 16.5924 15.4538 17.3751 15.3978 17.6546C15.314 18.1298 15.0903 19.5555 14.8106 21.4563C14.6429 22.6024 14.6988 22.826 15.2021 22.9378C15.6495 23.0217 15.6495 23.0217 15.6495 21.009C15.6495 19.9748 15.6495 19.1362 15.6775 19.1362C15.7054 19.1362 16.2926 19.248 16.9917 19.3877C17.6907 19.5275 18.2779 19.6393 18.3059 19.6114C18.3618 19.5555 18.5296 18.6889 18.7253 17.4869C18.8931 16.4806 18.6973 16.7601 20.6267 14.7754C21.2419 14.1604 21.885 13.4616 22.0807 13.2379C22.7798 12.4552 23.4229 12.2316 24.0101 12.5671C24.9329 13.1261 25.0447 13.6852 24.7651 16.0333C24.4295 18.8007 24.5414 19.1921 25.576 19.4996C26.5546 19.7791 26.8902 19.4716 28.0926 17.0955C29.1831 14.9431 29.4068 14.3561 29.5186 13.3218C29.5745 12.9305 29.6864 12.1198 29.7703 11.5048C29.8821 10.8898 30.0219 9.85555 30.1338 9.18466C30.2177 8.51378 30.3575 7.78699 30.3854 7.56336C30.4973 6.92043 30.8887 7.172 26.1352 4.43255C25.2684 3.92938 24.2897 3.37031 23.9542 3.14668C23.6186 2.95101 23.3111 2.78329 23.2831 2.78329C23.2272 2.75533 22.3883 3.59394 21.3817 4.62823ZM36.8446 3.73371C35.9778 4.26483 34.7755 4.96367 34.1883 5.29911C31.9233 6.61293 31.6158 6.80861 31.5319 6.94838C31.448 7.08814 31.5319 7.87084 31.9513 10.6103C32.0072 11.0017 32.1191 11.8123 32.203 12.3993C32.4826 14.4399 32.5385 14.6077 33.6849 16.8719C34.9991 19.5275 35.3347 19.835 36.3972 19.4436C37.32 19.0802 37.4598 18.3535 37.1243 16.0054C36.7887 13.797 36.9844 12.9864 37.9351 12.5111C38.6062 12.1757 38.8579 12.2875 40.4517 13.9368C42.4929 16.0333 42.9403 16.4806 42.9683 16.6762C43.0801 17.1794 43.3038 18.5212 43.5275 19.7791C43.8631 21.7638 44.0588 22.1272 44.7299 21.9595C45.3171 21.8197 45.3451 21.8197 45.3451 22.239C45.3451 22.826 45.4289 22.8819 46.1839 22.8819C46.9948 22.8819 47.2465 22.7142 47.1905 22.2111C46.9948 20.8134 46.855 19.6952 46.7711 19.2759C46.6872 18.8007 46.6033 18.2975 46.2958 16.0333C46.1 14.7195 45.9043 14.0766 45.4569 13.4336C44.7858 12.4552 44.5062 12.0359 43.919 11.1973C43.5835 10.7221 43.2759 10.3028 43.22 10.219C43.0242 9.93942 42.2413 8.82127 41.9896 8.45787C41.71 8.06652 41.682 7.98266 41.7939 7.98266C41.8219 7.98266 42.0735 8.2622 42.2972 8.62559C43.919 11.0296 44.2266 11.365 45.9602 12.8186C46.6872 13.4336 47.2465 13.9647 47.2744 14.0486C47.3304 14.3281 47.4702 15.2506 47.6379 16.3408C47.7218 16.844 47.8057 17.4589 47.8616 17.6826C47.9176 17.9062 47.9735 18.2696 48.0014 18.5212C48.1412 19.6673 49.092 20.5338 50.2384 20.5338C50.9934 20.5338 51.0213 20.45 50.9374 15.9774C50.8815 11.8962 50.9374 12.2037 49.791 11.1973C49.3436 10.806 48.8123 10.3587 48.5886 10.163C48.3649 9.96737 47.9455 9.60397 47.6379 9.35239C47.3583 9.10081 47.0507 8.87718 47.0228 8.82127C46.7152 8.48583 46.0441 8.06652 45.4569 7.81494C44.1147 7.28382 42.9124 6.7527 42.5768 6.58498C42.3811 6.47317 41.4863 5.63455 40.4517 4.57232C39.4731 3.56599 38.6342 2.75533 38.5783 2.75533C38.4664 2.78328 37.7115 3.20259 36.8446 3.73371ZM30.7489 6.66884C30.6371 6.89247 30.5532 7.33973 30.1338 10.2469C29.938 11.6166 29.6305 13.5175 29.5186 14.1045C29.4068 14.7195 29.211 15.1947 28.2324 17.1235C27.3655 18.8287 27.3376 18.9405 27.757 18.9405C27.8409 18.9405 28.512 19.0523 29.211 19.22C29.938 19.3598 30.693 19.4996 30.9167 19.4996C31.3361 19.4996 33.9366 19.0243 34.2721 18.8846C34.4399 18.8007 34.4119 18.7169 33.4053 16.6762C32.2309 14.3281 32.3987 14.8313 31.9513 11.7564C31.8395 11.0017 31.5039 8.73741 31.2802 7.36768C31.1684 6.55702 30.9167 6.27749 30.7489 6.66884ZM17.1035 6.69679C12.8253 6.97633 12.8533 6.94837 11.9865 8.76536C11.7908 9.18466 11.623 9.57602 11.6509 9.57602C11.6789 9.60397 12.9372 9.12876 13.4405 8.90513C13.9997 8.65355 14.8945 8.29015 14.9784 8.29015C15.0343 8.29015 15.1741 8.23424 15.314 8.15038C15.7613 7.92675 18.3618 6.86452 18.4457 6.86452C18.4736 6.86452 18.6135 6.80861 18.6973 6.72475C18.8931 6.58498 18.8651 6.58498 17.1035 6.69679ZM43.1361 6.72475C43.22 6.80861 43.3318 6.86452 43.3877 6.86452C43.4436 6.86452 43.7512 6.97633 44.1147 7.14405C45.1493 7.59131 45.2612 7.61927 45.9043 7.8988C46.2398 8.03857 46.5754 8.17834 46.6033 8.23424C46.6593 8.2622 46.7432 8.31811 46.7991 8.31811C46.9109 8.31811 47.3863 8.51378 48.3649 8.93308C48.4768 8.98899 48.8123 9.12876 49.1199 9.24058C49.4275 9.38034 49.819 9.52011 49.9308 9.60397C50.2664 9.77169 50.2384 9.71579 49.763 8.70946C49.3436 7.81494 49.0081 7.42359 48.4768 7.14405C47.8616 6.78066 42.7446 6.38931 43.1361 6.72475ZM3.84957 8.54173C5.66709 8.90513 6.25429 9.07285 6.36614 9.21262C6.45002 9.32444 6.47799 9.96737 6.47799 11.7005C6.47799 14.2722 6.45003 14.4679 5.97467 14.7474C5.83486 14.8313 5.38747 15.1108 4.94008 15.3904C3.93345 16.0333 4.0453 16.0613 2.78701 14.8593C1.36095 13.4895 1.50076 13.8809 1.50076 10.8619C1.50076 7.73108 1.41688 7.98266 2.22777 8.17834C2.59128 8.29015 3.31829 8.42992 3.84957 8.54173ZM1.86427 8.56968C1.78039 8.65355 1.75242 9.32443 1.75242 11.0016V13.3498L2.08796 13.7411C3.87753 15.7538 3.84957 15.7538 5.05193 15.0549C6.19837 14.3561 6.11448 14.6077 6.11448 11.8962C6.11448 9.12876 6.22633 9.4083 4.82823 9.10081C3.26237 8.76537 2.25574 8.56969 2.11593 8.51378C2.03204 8.48583 1.92019 8.51378 1.86427 8.56968ZM14.6429 8.54173C14.559 8.59764 14.2794 8.70945 13.9718 8.84922C13.6922 8.96104 13.0211 9.24057 12.4898 9.4642C11.9585 9.68783 11.5111 9.8835 11.4552 9.8835C11.0917 9.8835 10.2808 11.1135 8.29551 14.7754C8.1557 15.0549 7.87608 15.5301 7.70831 15.8376C7.12111 16.8719 7.12111 17.0676 7.82016 17.3471C8.82679 17.7664 9.94526 17.3751 10.5884 16.4247C10.8121 16.0892 10.8121 16.0613 10.8121 14.3002C10.8121 12.0639 10.7282 12.2596 12.6296 10.5823C14.9784 8.54173 15.0343 8.48582 14.8945 8.48582C14.8386 8.45787 14.7268 8.51378 14.6429 8.54173ZM46.827 8.51378C46.827 8.54173 47.0228 8.73741 47.2744 8.93308C47.5261 9.12876 47.9455 9.49216 48.2251 9.74374C48.5048 9.99532 48.9801 10.4146 49.2877 10.6662C51.0213 12.1477 50.9654 12.0359 50.9654 14.2443C50.9654 16.0892 51.0213 16.3687 51.5246 16.816C52.755 17.9341 54.964 17.5148 54.3208 16.2849C54.181 16.0054 53.9853 15.6699 52.699 13.3777C52.1398 12.3993 51.5526 11.3371 51.3848 11.0016C50.9654 10.2189 50.6578 9.99532 49.3436 9.4642C48.7285 9.24057 48.0853 8.96104 47.8896 8.87718C46.9948 8.45787 46.827 8.42992 46.827 8.51378ZM3.29033 10.1351C3.34625 10.1351 3.65383 10.7221 3.76568 11.0855C3.84957 11.393 3.96141 11.3371 4.12919 10.8898C4.32492 10.3587 4.4088 10.3028 4.91212 10.4426L5.33155 10.5264L4.96804 11.1414C4.57658 11.8123 4.57658 11.8962 4.96804 11.8962C5.19174 11.8962 5.2197 11.9241 5.2197 12.1757C5.2197 12.3993 5.19174 12.4273 5.05193 12.3993C4.46473 12.2316 4.29696 12.2316 4.32492 12.3993C4.35288 12.5111 4.46473 12.595 4.77231 12.6509C5.16378 12.7348 5.19174 12.7348 5.19174 12.9864C5.19174 13.182 5.16378 13.2379 5.02397 13.21C4.38084 13.0143 4.29696 13.0423 4.269 13.3498C4.21307 13.825 3.40218 13.7132 3.40218 13.21C3.40218 12.9305 3.37421 12.9025 2.95479 12.7907C2.56332 12.7068 2.50739 12.6509 2.50739 12.4552C2.50739 12.2316 2.5074 12.2316 2.95479 12.2875C3.43014 12.3434 3.62587 12.1198 3.17848 12.0359C3.06663 12.008 2.84294 11.98 2.73109 11.9521C2.56332 11.9241 2.50739 11.8403 2.50739 11.6725C2.50739 11.4489 2.53536 11.4489 2.78701 11.5048C3.12256 11.5607 3.12256 11.5048 2.75905 10.7221C2.42351 9.99532 2.42351 9.96737 2.8709 10.0512C3.06663 10.1071 3.26237 10.1351 3.29033 10.1351ZM16.712 12.3434C16.4604 12.5671 16.3206 12.9864 16.4884 12.9864C16.5722 12.9864 17.0756 12.2037 17.0196 12.1477C17.0196 12.1198 16.8519 12.2037 16.712 12.3434ZM44.7858 12.2596C44.7858 12.2875 44.8697 12.3993 44.9536 12.4832C45.0375 12.5671 45.1493 12.7068 45.1773 12.8186C45.2612 13.0423 45.401 13.0423 45.401 12.7907C45.401 12.6789 45.2891 12.5111 45.1773 12.3993C44.9536 12.1757 44.7858 12.1198 44.7858 12.2596ZM58.9905 13.3498C59.0184 14.6636 59.0744 14.5797 57.9 14.8872C56.6696 15.2226 56.7535 15.3065 56.7815 13.8809L56.8094 12.6509L57.2009 12.5391C57.7881 12.3714 58.7388 12.1757 58.8507 12.2037C58.9345 12.2316 58.9905 12.7068 58.9905 13.3498ZM57.7322 12.623L57.0331 12.7627L57.0052 13.825L56.9772 14.8872L57.4526 14.8313C57.7042 14.8033 58.1237 14.7195 58.3474 14.6356L58.7668 14.4959V13.4895C58.7388 12.3155 58.8507 12.3993 57.7322 12.623ZM22.8637 12.7068C22.3604 13.0143 18.921 16.6762 18.921 16.8999C18.921 17.0676 19.1727 17.2074 19.676 17.2912C20.7106 17.4869 23.0874 17.9621 23.6746 18.1019C24.3457 18.2696 24.3177 18.2975 24.4855 16.8999C24.5694 16.229 24.6532 15.3345 24.7092 14.9152C24.9049 13.21 23.9262 12.0639 22.8637 12.7068ZM37.9911 12.6789C37.3759 12.9584 37.0124 13.6852 37.0963 14.4959C37.2641 16.0892 37.5157 18.1298 37.5996 18.1857C37.6555 18.2416 37.7953 18.2137 37.9631 18.1578C38.1309 18.1019 38.4664 18.018 38.746 17.9621C40.6475 17.5987 42.6887 17.1515 42.8005 17.0676C43.0522 16.844 43.0801 16.8719 40.1162 13.797C38.8579 12.5111 38.6062 12.3714 37.9911 12.6789ZM15.5376 13.3218C14.8945 13.8529 14.6988 14.2443 14.5869 15.2227C14.4471 16.201 14.4471 16.201 15.0064 15.9494C15.5097 15.7258 15.5097 15.6699 15.6215 14.9431C15.6775 14.4959 15.7893 14.1884 16.2087 13.4616C16.5443 12.8186 16.2087 12.7627 15.5376 13.3218ZM45.5688 12.9584C45.4569 13.0702 45.5128 13.2379 45.8204 13.7411C46.0161 14.0486 46.156 14.4679 46.2398 14.8313C46.4076 15.7258 46.4076 15.7258 46.883 15.9494C47.1346 16.0613 47.3583 16.1451 47.3583 16.1451C47.4142 16.0892 47.1067 14.1604 47.0228 13.9927C46.7431 13.6013 45.6806 12.8466 45.5688 12.9584ZM58.4872 12.9864C58.6549 13.0982 58.4592 13.2379 58.2075 13.2379C58.1237 13.2379 58.0398 13.2659 58.0398 13.3218C58.0398 13.3777 58.1237 13.4057 58.2075 13.4057C58.4872 13.4057 58.7109 13.7132 58.5711 13.9368C58.4033 14.2443 57.9838 14.4959 57.7042 14.4399C57.2009 14.3281 57.0891 13.9927 57.5924 14.0765C57.9559 14.1604 57.9279 13.8809 57.5924 13.7691C57.3967 13.7132 57.3128 13.6293 57.3128 13.4616C57.3407 13.0702 58.1237 12.7627 58.4872 12.9864ZM58.0398 13.9088C58.0398 13.9927 58.0677 14.0486 58.1237 14.0486C58.1796 14.0486 58.2075 13.9927 58.2075 13.9088C58.2075 13.825 58.1796 13.7691 58.1237 13.7691C58.0677 13.797 58.0398 13.8529 58.0398 13.9088ZM14.9225 16.1731C14.4751 16.3408 14.3912 16.4247 14.3912 16.7042C14.3912 16.9558 14.3912 16.9558 14.8106 16.7042C15.1462 16.5085 15.4538 16.201 15.4538 16.0613C15.4538 15.9774 15.3978 16.0053 14.9225 16.1731ZM46.4635 16.201C46.5195 16.4526 47.554 17.0955 47.554 16.8719C47.554 16.6483 47.3304 16.3408 47.0787 16.2569C46.4635 16.0054 46.4076 15.9774 46.4635 16.201ZM60.4445 16.3408C60.3886 16.4247 59.9412 16.9278 59.4099 17.431C58.8786 17.9341 58.4872 18.2975 58.5431 18.2416C58.599 18.1298 60.4725 16.201 60.5284 16.201C60.5284 16.201 60.5004 16.2569 60.4445 16.3408ZM14.8386 16.8719C14.2514 17.2912 14.2514 17.3192 14.1675 17.9901C14.1396 18.3535 14.0836 18.6889 14.0836 18.7169C14.0836 18.7728 14.2794 18.8566 14.5031 18.9125L14.9225 19.0243L15.0064 18.6889C15.0903 18.3535 15.286 17.0955 15.286 16.816C15.286 16.5924 15.2021 16.5924 14.8386 16.8719ZM46.5754 17.1514C46.6033 17.431 46.6872 17.9621 46.7711 18.3255L46.883 18.9684L47.2744 18.9125C47.4981 18.8846 47.6939 18.8287 47.7218 18.8287C47.7777 18.8007 47.6939 17.9901 47.582 17.403C47.554 17.2633 46.7152 16.6483 46.5474 16.6483C46.5195 16.6203 46.5474 16.8719 46.5754 17.1514ZM18.949 17.4589C18.8092 17.6267 18.5575 19.3877 18.6414 19.5834C18.7533 19.807 19.5362 19.9189 19.8997 19.807C20.1234 19.7232 22.3883 18.3814 22.64 18.1857C22.7239 18.1019 21.913 17.9062 19.8997 17.5428C19.6201 17.4869 19.3405 17.431 19.2286 17.403C19.1447 17.3751 19.0049 17.403 18.949 17.4589ZM42.465 17.3751C42.437 17.403 42.0176 17.4869 41.4863 17.5987C39.3892 17.9901 39.0816 18.0739 39.1934 18.1578C39.3053 18.2696 41.7659 19.7232 41.9617 19.835C42.3252 20.0027 43.2759 19.7791 43.2759 19.5275C43.2759 18.4653 42.7446 17.0955 42.465 17.3751ZM3.82161 17.7944C3.70976 17.9062 3.6818 22.3229 3.79364 22.6024C3.90549 22.9099 5.77894 24.8107 5.97467 24.8107C6.14244 24.8107 7.73627 23.9162 7.95997 23.6926C8.12774 23.5249 8.1557 18.7448 7.98793 18.633C7.90404 18.5771 7.03723 18.3814 5.05193 17.9621C4.57658 17.8503 4.15715 17.7664 4.07326 17.7385C3.98938 17.7105 3.87753 17.7385 3.82161 17.7944ZM21.6333 19.0243C20.9063 19.4716 20.2632 19.835 20.2353 19.835C20.0675 19.835 20.1793 20.0307 20.3751 20.1145C20.5988 20.1984 20.5988 20.2263 20.5428 20.7016C20.4589 21.2886 20.5149 21.2886 21.1021 20.8693C21.6893 20.4779 22.1926 20.3941 22.8357 20.5897C23.1153 20.6736 23.395 20.7295 23.4788 20.7295C23.6186 20.7295 25.1006 19.9468 25.2684 19.7791C25.2964 19.7511 25.1286 19.5834 24.9329 19.3877C24.7371 19.1921 24.5134 18.9125 24.4295 18.7728C24.2618 18.4373 24.066 18.3255 23.4229 18.2696L22.9196 18.2137L21.6333 19.0243ZM38.1588 18.3255C37.8233 18.3814 37.5157 18.4373 37.5157 18.4932C37.4318 18.7448 36.9285 19.3877 36.7887 19.4436C36.3693 19.5834 36.3972 19.7232 36.9285 20.0586C38.075 20.7575 38.1309 20.7854 38.9977 20.5897C39.8645 20.422 39.9764 20.45 40.6195 20.8413C42.6328 22.1272 43.0242 22.3229 43.2759 22.239L43.5555 22.1551L42.9403 21.7638C41.3745 20.7575 41.2347 20.6736 41.2067 20.422C41.1787 20.2264 41.2347 20.1704 41.4024 20.1145C41.5422 20.0866 41.6261 20.0027 41.5982 19.9748C41.5702 19.8909 38.8579 18.2137 38.774 18.2416C38.802 18.2416 38.5224 18.2975 38.1588 18.3255ZM5.97467 19.1921C6.00263 19.2759 6.19837 19.4436 6.42206 19.5834C7.03722 19.9468 7.37277 20.6177 6.92538 20.5618C6.45002 20.5059 6.31022 20.45 6.25429 20.2823C6.17041 20.0027 5.94671 20.0586 5.94671 20.3661C5.94671 20.6456 6.11448 20.8413 6.6178 21.1768C7.65239 21.8756 7.42869 23.3572 6.31021 23.2733C6.0306 23.2453 5.97467 23.2733 5.97467 23.441C5.94671 23.7205 5.75098 23.6367 5.69505 23.3292C5.66709 23.1615 5.55524 23.0217 5.24766 22.826C4.80027 22.5465 4.49269 22.1551 4.38084 21.7358C4.32492 21.4563 4.26899 21.4843 4.996 21.624C5.16378 21.652 5.27562 21.7638 5.38747 21.9874C5.58321 22.4067 5.69505 22.3788 5.69505 21.8756C5.69505 21.4843 5.66709 21.4284 5.30359 21.2047C4.21307 20.5338 4.21307 19.1641 5.30359 19.1641C5.52728 19.1641 5.72301 19.1362 5.72301 19.0802C5.66709 18.9684 5.91875 19.0243 5.97467 19.1921ZM27.6452 19.6114C27.1698 19.7791 26.6945 19.9468 26.5267 20.0027C26.3589 20.0586 26.0793 20.0866 25.7997 20.0586C25.3523 20.0027 25.2964 20.0307 24.7092 20.3661C24.122 20.7295 23.9542 20.8972 24.2058 20.8972C24.4016 20.8972 24.4575 21.2327 24.3177 21.4004C24.1779 21.5681 23.0594 22.2949 21.9409 22.9378C20.6547 23.6646 20.5149 23.8324 20.5149 24.7548C20.5149 25.4537 20.4869 25.5096 19.7879 25.9568C19.4244 26.1805 19.3125 26.3761 19.5362 26.3761C19.5642 26.3761 20.431 25.873 21.4656 25.258C22.5002 24.643 23.4509 24.056 23.5907 23.9721C23.7305 23.8883 24.4855 23.441 25.2404 22.9658C26.9741 21.9036 26.8902 21.9595 28.9035 20.7295C29.8262 20.1704 30.5812 19.6952 30.5812 19.6673C30.5812 19.6114 30.4134 19.5555 29.3788 19.3598C28.484 19.2759 28.6238 19.248 27.6452 19.6114ZM32.3987 19.4436C32.0911 19.5275 31.7276 19.6114 31.5878 19.6393C31.1963 19.7232 31.2243 19.7511 31.8674 20.1425C32.175 20.3102 33.0418 20.8413 33.7968 21.3165C34.5518 21.7917 35.5304 22.3788 35.9778 22.6304C36.4252 22.8819 37.6276 23.6087 38.6342 24.2517C41.5982 26.0687 42.0735 26.3482 42.3531 26.3482C42.6328 26.3482 42.6607 26.2643 42.4091 26.0407C42.2413 25.9009 42.2413 25.7891 42.2413 25.258C42.2413 24.9226 42.2413 24.5871 42.2413 24.5312C42.2413 24.4753 41.2347 23.8044 39.9764 23.0497C37.3759 21.4563 37.32 21.4004 37.5437 21.009C37.6276 20.8693 37.6835 20.7295 37.6835 20.7295C37.6835 20.7295 37.4318 20.5897 37.1802 20.3941C36.7607 20.1145 36.593 20.0866 35.8939 20.0307C35.3067 20.0027 34.9153 19.9189 34.4119 19.6952C33.5451 19.3318 33.0698 19.2759 32.3987 19.4436ZM10.3367 19.5834C10.169 19.6952 9.77749 19.9468 9.46991 20.1425C8.40736 20.7854 8.43532 20.7295 8.43532 21.5402C8.43532 22.2949 8.46328 22.3508 8.85475 22.0713C8.99456 21.9874 9.52584 21.652 10.0292 21.3445C10.5325 21.037 11.0078 20.7575 11.0358 20.7295C11.0917 20.7016 11.0637 20.6177 10.9799 20.5059C10.896 20.422 10.8121 20.1425 10.7841 19.8909C10.7002 19.3318 10.7002 19.3318 10.3367 19.5834ZM51.1611 19.4996C50.9654 20.0307 50.8536 20.6736 50.9374 20.7575C51.0213 20.8413 51.5526 21.1768 52.4474 21.7079C54.4886 22.9099 54.7403 23.2174 53.9853 23.5249L53.5659 23.6926L53.8734 23.8603C54.1531 24.0001 54.209 24.0001 54.5166 23.8883L54.8521 23.7485V23.1335C54.8521 22.4906 54.9919 22.239 55.4113 22.239C55.8308 22.239 55.4114 21.9315 53.6777 20.8972C52.6431 20.2823 51.6645 19.6952 51.4967 19.5834C51.273 19.4436 51.1891 19.4157 51.1611 19.4996ZM15.9571 19.5275C15.9291 19.5555 15.9012 20.7016 15.9012 22.0154V24.4473L16.6841 25.258C18.1661 26.8234 17.9424 26.7395 19.0888 26.0687C20.2912 25.3419 20.1793 25.6773 20.1793 22.8819V20.45L19.9836 20.3661C19.8717 20.3102 19.0329 20.1145 18.0822 19.9189C17.1594 19.7232 16.3206 19.5275 16.2087 19.4996C16.0969 19.4996 15.985 19.4996 15.9571 19.5275ZM5.41543 19.9748C5.33155 20.0586 5.33155 20.1425 5.41543 20.2823C5.55524 20.5338 5.69505 20.5059 5.69505 20.1984C5.66709 19.8909 5.55524 19.7791 5.41543 19.9748ZM60.5284 20.3102C60.5284 20.422 57.9838 20.8972 57.9 20.7854C57.7881 20.6736 57.9279 20.6457 59.1303 20.422C60.6123 20.1704 60.5284 20.1704 60.5284 20.3102ZM18.5575 21.065C19.2007 21.4004 19.4244 22.0154 18.921 21.9874C18.4457 21.9595 18.4457 21.9595 18.3338 21.7638C18.222 21.5122 17.8864 21.4563 17.8026 21.652C17.6907 21.9595 17.9144 22.3788 18.2779 22.4626C18.7812 22.5745 18.8372 23.0776 18.3618 22.9938C18.0822 22.9379 17.6907 23.3572 17.8864 23.4969C17.9703 23.5528 18.8092 23.8044 18.977 23.8044C19.2286 23.8044 19.5362 24.4194 19.3684 24.5312C19.2007 24.643 18.6694 24.5592 18.0542 24.2796C17.6628 24.1119 17.4391 24.056 17.2433 24.0839C16.7959 24.1678 16.6002 23.6367 16.9078 23.2453C17.2154 22.8819 17.1874 22.7422 16.8798 22.6304C16.5722 22.5185 16.5163 22.1272 16.8239 22.1551C16.9637 22.1551 16.9637 22.1272 16.9357 21.7638C16.7959 20.9531 17.6348 20.5897 18.5575 21.065ZM13.4405 21.7638C12.9092 22.0992 12.35 22.4347 12.2381 22.4906C12.1263 22.5745 11.623 22.8819 11.1756 23.1615C10.0851 23.8603 9.80546 23.9442 9.16233 23.8044C8.79883 23.7206 8.63105 23.7206 8.46328 23.8044C8.18366 23.9442 8.18366 24.056 8.49125 24.1119C8.63105 24.1399 9.24622 24.2796 9.88934 24.3914C11.3434 24.6989 11.8467 24.7548 12.0144 24.6151C12.1822 24.4753 12.1263 24.3914 11.7908 24.3076C11.1197 24.1678 11.4272 23.7485 12.9092 22.854C14.3073 21.9874 14.559 21.7917 14.559 21.4284C14.559 21.0929 14.5869 21.065 13.4405 21.7638ZM47.2185 21.3165C47.2465 21.4004 47.2744 21.5402 47.2744 21.6799C47.2744 21.8477 47.3863 21.9595 47.7498 22.1551C50.1825 23.5808 50.7976 24.1678 49.9588 24.3355C49.819 24.3635 49.7071 24.4473 49.7071 24.5033C49.763 24.6989 50.1265 24.8107 50.4621 24.7269C51.8882 24.4194 53.1464 24.1678 53.3422 24.1399C53.6218 24.0839 53.6497 23.9721 53.3981 23.8324C53.2583 23.7485 53.0625 23.7485 52.5592 23.8324C51.8043 23.9721 52.0839 24.0839 49.3716 22.4067C47.3303 21.1488 47.1346 21.037 47.2185 21.3165ZM5.94671 22.0992C5.94671 22.4347 6.14244 22.6024 6.33818 22.4347C6.47799 22.2949 6.31021 21.8477 6.11448 21.8197C5.97467 21.7917 5.94671 21.8477 5.94671 22.0992ZM44.3105 22.267C43.0522 22.5465 42.5768 22.6583 42.4929 22.7142C42.4091 22.7701 42.4091 23.1615 42.437 24.3076C42.4929 26.0407 42.465 25.9289 43.3598 26.4321L43.8072 26.6836L44.4782 25.9848L45.1493 25.286V23.7205C45.1493 21.9315 45.2332 22.0713 44.3105 22.267ZM56.0824 22.239C55.8587 22.267 55.5232 22.3508 55.3554 22.4067L55.0199 22.4906L54.9919 23.1894C54.964 24.5033 54.9919 24.643 55.4393 24.9226C55.8587 25.2021 55.9986 25.1741 56.4739 24.5592C56.8374 24.1119 56.8374 24.1119 56.7815 22.7701C56.7815 22.0713 56.8374 22.0992 56.0824 22.239ZM56.4739 22.854C56.5858 22.9658 56.5298 23.0217 56.2782 23.0497C55.9426 23.1056 55.9706 23.1894 56.3061 23.3292C56.8654 23.5528 56.3341 24.4194 55.691 24.3076C55.2436 24.2237 55.1317 24.0839 55.3834 23.9721C55.5232 23.8883 55.635 23.8883 55.691 23.9442C55.7748 24.0001 55.8028 24.0001 55.8028 23.8603C55.8028 23.7485 55.7469 23.6646 55.635 23.6646C55.5512 23.6646 55.4114 23.6087 55.3554 23.5249C55.0199 23.1056 56.0824 22.4626 56.4739 22.854ZM44.7579 23.1056C45.0095 23.2453 44.7858 23.6646 44.4503 23.6646C44.1147 23.6646 43.8072 23.8044 43.8072 23.9442C43.8072 24.0001 43.919 24.028 44.0868 23.9721C44.2266 23.9442 44.3664 23.9442 44.3664 24.0001C44.3664 24.1399 44.1707 24.2796 44.0029 24.2796C43.919 24.2796 43.8072 24.3355 43.7792 24.3914C43.7233 24.4753 43.8072 24.4753 44.0588 24.4194C44.3384 24.3635 44.3944 24.3635 44.3664 24.5312C44.3384 24.643 44.2545 24.6989 44.0868 24.7269C43.947 24.7548 43.8631 24.8107 43.8631 24.8666C43.919 25.0344 44.3384 25.0344 44.5621 24.8946C44.8417 24.6989 44.8977 24.7269 44.8977 25.0344C44.8977 25.3698 44.5062 25.5655 43.891 25.5655C43.4157 25.5655 42.6048 24.9226 42.8844 24.7548C43.0801 24.643 43.0801 24.5033 42.8844 24.5033C42.7446 24.5033 42.7446 24.4753 42.9124 24.3076C42.9963 24.1958 43.1361 24.0001 43.22 23.8603C43.4436 23.3292 44.4223 22.8819 44.7579 23.1056ZM56.9772 23.1615C56.9772 23.3571 57.117 23.4131 57.3407 23.3012L57.5365 23.2174L57.3407 23.1056C57.0891 22.9938 56.9772 22.9938 56.9772 23.1615ZM45.3171 23.441C45.3171 23.6646 45.401 23.7765 45.8204 24.028C46.7432 24.6151 46.7711 25.1462 45.8763 25.1462C45.5967 25.1462 45.5967 25.286 45.8763 25.4257C46.0441 25.5096 46.2398 25.5096 46.6872 25.4257C47.6659 25.258 49.4834 24.8666 49.5393 24.8107C49.6792 24.671 49.2318 24.5033 48.8683 24.5592C47.6939 24.7548 47.8057 24.7828 46.6033 24.028C45.373 23.2453 45.3171 23.2174 45.3171 23.441ZM57.2289 23.5528C57.0891 23.5808 57.0052 23.6926 56.9772 23.8044C56.9493 24.056 57.0611 24.056 57.3687 23.7765C57.7042 23.4969 57.6763 23.441 57.2289 23.5528ZM14.7547 24.3355C14.0557 24.7548 13.9159 24.7828 12.8813 24.5871C12.5737 24.5312 12.1543 24.7269 12.2661 24.8387C12.5178 25.0903 15.7893 25.5655 16.041 25.3698C16.2367 25.23 16.2087 25.2021 15.7334 25.1182C15.286 25.0064 15.2301 24.9226 15.3699 24.6151C15.6775 23.8044 15.6215 23.7765 14.7547 24.3355ZM54.4047 24.0839C54.0412 24.1119 54.0412 24.2237 54.4047 24.4473C54.7962 24.6989 54.8241 24.671 54.8241 24.3635C54.8521 24.056 54.7962 24.028 54.4047 24.0839ZM8.07182 24.3355C8.07182 24.3635 8.46328 24.7828 8.91067 25.258L9.74953 26.1246L10.2249 25.873C11.8746 24.9785 11.8746 25.0064 10.6723 24.7828C10.3088 24.7269 9.60972 24.5871 9.13437 24.4753C8.23959 24.2796 8.07182 24.2517 8.07182 24.3355ZM51.8602 24.6151C50.0147 24.9785 50.0427 24.9785 51.1611 25.5934C52.1957 26.1805 52.028 26.2364 53.5379 24.5592C53.8734 24.1958 53.9014 24.1958 51.8602 24.6151ZM12.8813 25.9568C13.9718 26.9911 13.832 26.9632 14.7547 26.3761C15.7334 25.7332 15.7613 25.7891 14.2234 25.4816C13.8599 25.3978 13.2727 25.286 12.9372 25.23C11.8467 24.9785 11.8467 25.0064 12.8813 25.9568ZM48.8683 25.23C48.3649 25.3419 47.3304 25.5655 46.6313 25.6773C46.2119 25.7612 46.2678 25.845 47.0507 26.3482C48.0014 26.9632 47.8616 26.9911 48.8962 26.0407C50.0147 25.0064 50.0147 24.9785 48.8683 25.23ZM45.0934 25.6214L44.9256 25.8171L45.2612 25.7612C45.6526 25.7053 45.7086 25.6493 45.6247 25.5375C45.5408 25.3698 45.2891 25.4257 45.0934 25.6214ZM16.6561 26.6277C17.8864 27.8018 17.7187 27.7459 18.6135 27.1868C19.0329 26.9352 19.3964 26.6557 19.4244 26.5998C19.4803 26.4041 18.977 26.488 18.6135 26.7116C18.1101 27.0191 17.9424 26.9911 17.5509 26.5718C17.1315 26.1525 16.6002 25.873 16.1808 25.873H15.8732L16.6561 26.6277ZM45.2891 25.9568C44.8697 26.0687 44.5062 26.2643 44.1986 26.6277C43.8631 26.9911 43.8072 27.0191 43.3318 26.7116C42.9683 26.488 42.4091 26.4041 42.4091 26.5718C42.4091 26.6557 43.3318 27.2986 43.8072 27.5502C44.0588 27.69 44.0868 27.662 45.0654 26.7395C46.0161 25.8171 46.0441 25.7612 45.2891 25.9568ZM17.1874 32.3023C16.9637 32.4141 16.9637 37.921 17.1874 38.0049C17.5229 38.1446 17.1594 38.2285 16.3765 38.2285C15.5376 38.2285 15.286 38.1446 15.6215 37.9489C15.7893 37.8651 15.7893 37.7812 15.7893 35.9363C15.7893 33.9795 15.7613 33.8118 15.5097 34.315C15.3419 34.6225 14.7547 35.7406 14.1116 36.9147C13.8879 37.306 13.6642 37.7253 13.5803 37.8651C13.4125 38.1726 13.3846 38.1446 12.7415 36.9426C12.4618 36.4395 12.0704 35.6847 11.8746 35.2933C11.6789 34.902 11.4272 34.4268 11.3154 34.2591C11.2315 34.0634 11.1197 33.9236 11.0917 33.9236C11.0637 33.9236 11.0637 34.8181 11.0637 35.9363C11.0637 37.6415 11.0917 37.9489 11.2036 37.9489C11.2874 37.9489 11.3434 38.0048 11.3434 38.0887C11.3434 38.2005 11.2036 38.2285 10.5604 38.2285C9.74953 38.2285 9.5538 38.1726 9.80546 37.9489C10.0292 37.7812 10.0012 32.3862 9.77749 32.2744C9.66564 32.2185 9.9173 32.1905 10.7002 32.1905C11.7069 32.1905 11.7908 32.1905 11.7069 32.3303C11.623 32.47 11.8187 32.8893 13.2168 35.4052L13.4685 35.8245L14.3353 34.287C14.8666 33.3646 15.2021 32.6378 15.2301 32.498V32.2185L16.041 32.1625C16.9917 32.1346 17.4111 32.1625 17.1874 32.3023ZM26.2471 33.0012C26.275 33.0571 27.1698 33.085 28.6238 33.085C29.9101 33.085 31.0006 33.113 31.0845 33.1689C31.1684 33.2248 30.8049 33.7559 29.6025 35.2654C28.7077 36.3556 27.9807 37.306 27.9807 37.334C27.9807 37.4178 30.8049 37.3899 30.8608 37.306C31.0006 37.0824 31.0845 37.2501 31.0845 37.7812V38.3403L28.6238 38.3123C25.9115 38.2844 25.8556 38.2844 26.2471 37.7812C26.9461 36.9147 29.1271 34.0913 29.1271 34.0634C29.1271 33.9516 26.3869 34.0354 26.2471 34.1473C26.0513 34.3429 25.9954 34.2311 25.9954 33.5602C26.0234 32.9452 26.1073 32.7496 26.2471 33.0012ZM45.8484 33.0012C45.8484 33.0571 46.6872 33.085 48.1692 33.085C49.6512 33.085 50.49 33.0571 50.49 33.0012C50.49 32.9452 50.518 32.9173 50.5739 32.9173C50.6299 32.9173 50.6578 33.1968 50.6578 33.5323C50.6578 34.0913 50.5739 34.287 50.4341 34.0634C50.4062 34.0075 50.0147 33.9795 49.5393 33.9795H48.7005V35.9642C48.7005 37.6974 48.7285 37.9489 48.8403 38.0049C49.1479 38.1167 48.8123 38.2285 48.1692 38.2285C47.61 38.2285 47.4702 38.2005 47.4702 38.0887C47.4702 38.0048 47.4981 37.9489 47.554 37.9489C47.61 37.9489 47.6379 37.2222 47.6379 35.9363V33.9516H46.7991C46.3237 33.9516 45.9323 33.9795 45.9043 34.0354C45.7645 34.2591 45.6806 34.0634 45.6806 33.5043C45.6806 33.1409 45.7086 32.8893 45.7645 32.8893C45.8204 32.8893 45.8484 32.9452 45.8484 33.0012ZM23.0314 33.2527C25.548 34.0913 25.5201 37.2781 23.0314 38.0608C20.7665 38.7596 18.8092 37.6415 18.7812 35.6567C18.7812 33.7 20.8504 32.5259 23.0314 33.2527ZM35.7541 33.3086C35.7262 33.5043 35.838 33.7559 36.7328 35.6288C37.0124 36.1879 37.3479 36.9147 37.4878 37.2501C37.6555 37.5855 37.8233 37.8651 37.9072 37.893C38.3266 38.0608 38.019 38.2005 37.2361 38.2005C36.3972 38.2005 36.3693 38.2005 36.5371 37.9489C36.6209 37.8092 36.593 37.6974 36.3972 37.334L36.1735 36.8587H34.9432H33.7129L33.5172 37.2222C33.3494 37.5017 33.3214 37.6694 33.3774 37.893L33.4333 38.2005H32.7063C32.1191 38.2005 31.9793 38.1726 31.9793 38.0608C31.9793 37.9769 32.0352 37.921 32.0631 37.921C32.1191 37.921 32.3148 37.5576 32.5105 37.1383C33.0418 36.0201 33.2375 35.5729 33.601 34.7622C33.9925 33.8957 34.1883 33.4205 34.1044 33.3645C33.8807 33.1409 34.1883 33.0291 34.9432 33.0571C35.7262 33.113 35.7541 33.1409 35.7541 33.3086ZM43.192 33.2248C44.7858 33.5882 45.0654 35.3213 43.6114 35.9083C43.192 36.0761 43.192 36.0201 43.7512 36.8587C44.3105 37.6974 44.5621 37.9769 44.7019 37.9769C44.7579 37.9769 44.7858 38.0328 44.7858 38.1167C44.7858 38.2285 44.618 38.2564 43.919 38.2564H43.0522L43.1081 38.0328C43.164 37.8371 43.0522 37.6415 42.6607 37.0265L42.1574 36.1879H41.3465H40.5356V37.0824C40.5356 37.6135 40.5636 37.9769 40.6195 37.9769C40.6754 37.9769 40.7034 38.0328 40.7034 38.1167C40.7034 38.2285 40.5636 38.2564 39.9484 38.2564C39.1934 38.2564 39.0816 38.2005 39.3332 37.9769C39.529 37.8092 39.529 33.5323 39.3332 33.3645C39.2494 33.3086 39.2214 33.2248 39.2494 33.1689C39.3332 33.0012 42.4929 33.0571 43.192 33.2248ZM21.2139 34.0075C20.3191 34.2591 19.7599 35.0138 19.8158 35.8524C19.9836 37.4737 22.5002 37.9769 23.4788 36.5792C24.4295 35.2095 22.9196 33.5323 21.2139 34.0075ZM40.5356 34.6225C40.5356 35.4052 40.5076 35.4052 41.6261 35.4052C42.9403 35.4052 43.4436 35.2095 43.4436 34.6504C43.4436 34.1193 43.22 34.0354 41.7939 34.0075L40.5076 33.9795V34.6225H40.5356ZM34.7475 34.3988C34.6916 34.5106 34.5238 34.874 34.384 35.2374C34.2442 35.6008 34.1044 35.9363 34.0764 35.9922C34.0484 36.076 34.2442 36.104 34.9432 36.104C35.4465 36.104 35.838 36.076 35.81 36.0481C35.7821 36.0201 35.6423 35.6567 35.4465 35.2933C35.2508 34.902 35.111 34.5666 35.111 34.5386C35.111 34.287 34.8314 34.2311 34.7475 34.3988Z" fill="white"/>
</svg>
